<svg width="500" height="500" viewBox="0 0 500 500" fill="none" xmlns="http://www.w3.org/2000/svg">
<mask id="mask0_9_12" style="mask-type:alpha" maskUnits="userSpaceOnUse" x="7" y="7" width="486" height="486">
<rect x="7" y="7" width="486" height="486" fill="#D9D9D9"/>
</mask>
<g mask="url(#mask0_9_12)">
<path d="M158.227 329.727H143.734V320.586H158.227C160.466 320.586 162.289 320.221 163.695 319.492C165.102 318.737 166.13 317.695 166.781 316.367C167.432 315.039 167.758 313.542 167.758 311.875C167.758 310.182 167.432 308.607 166.781 307.148C166.13 305.69 165.102 304.518 163.695 303.633C162.289 302.747 160.466 302.305 158.227 302.305H147.797V350H136.078V293.125H158.227C162.68 293.125 166.495 293.932 169.672 295.547C172.875 297.135 175.323 299.336 177.016 302.148C178.708 304.961 179.555 308.177 179.555 311.797C179.555 315.469 178.708 318.646 177.016 321.328C175.323 324.01 172.875 326.081 169.672 327.539C166.495 328.997 162.68 329.727 158.227 329.727ZM232.759 320.234V322.93C232.759 327.253 232.173 331.133 231.002 334.57C229.83 338.008 228.176 340.938 226.041 343.359C223.905 345.755 221.353 347.591 218.384 348.867C215.442 350.143 212.173 350.781 208.58 350.781C205.012 350.781 201.744 350.143 198.775 348.867C195.832 347.591 193.28 345.755 191.119 343.359C188.957 340.938 187.278 338.008 186.08 334.57C184.908 331.133 184.322 327.253 184.322 322.93V320.234C184.322 315.885 184.908 312.005 186.08 308.594C187.252 305.156 188.905 302.227 191.041 299.805C193.202 297.383 195.754 295.534 198.697 294.258C201.666 292.982 204.934 292.344 208.502 292.344C212.095 292.344 215.364 292.982 218.306 294.258C221.275 295.534 223.827 297.383 225.963 299.805C228.124 302.227 229.791 305.156 230.963 308.594C232.16 312.005 232.759 315.885 232.759 320.234ZM220.923 322.93V320.156C220.923 317.135 220.65 314.479 220.103 312.188C219.556 309.896 218.749 307.969 217.681 306.406C216.614 304.844 215.311 303.672 213.775 302.891C212.239 302.083 210.481 301.68 208.502 301.68C206.522 301.68 204.765 302.083 203.228 302.891C201.718 303.672 200.429 304.844 199.361 306.406C198.319 307.969 197.525 309.896 196.978 312.188C196.431 314.479 196.158 317.135 196.158 320.156V322.93C196.158 325.924 196.431 328.581 196.978 330.898C197.525 333.19 198.332 335.13 199.4 336.719C200.468 338.281 201.77 339.466 203.306 340.273C204.843 341.081 206.601 341.484 208.58 341.484C210.559 341.484 212.317 341.081 213.853 340.273C215.39 339.466 216.679 338.281 217.72 336.719C218.762 335.13 219.556 333.19 220.103 330.898C220.65 328.581 220.923 325.924 220.923 322.93ZM269.206 335.117C269.206 334.102 269.05 333.19 268.738 332.383C268.451 331.549 267.904 330.794 267.097 330.117C266.29 329.414 265.157 328.724 263.698 328.047C262.24 327.37 260.352 326.667 258.034 325.938C255.456 325.104 253.008 324.167 250.691 323.125C248.399 322.083 246.368 320.872 244.597 319.492C242.852 318.086 241.472 316.458 240.456 314.609C239.467 312.76 238.972 310.612 238.972 308.164C238.972 305.794 239.493 303.646 240.534 301.719C241.576 299.766 243.034 298.099 244.909 296.719C246.784 295.312 248.998 294.232 251.55 293.477C254.128 292.721 256.954 292.344 260.027 292.344C264.219 292.344 267.878 293.099 271.003 294.609C274.128 296.12 276.55 298.19 278.269 300.82C280.014 303.451 280.886 306.458 280.886 309.844H269.245C269.245 308.177 268.894 306.719 268.191 305.469C267.514 304.193 266.472 303.19 265.066 302.461C263.685 301.732 261.941 301.367 259.831 301.367C257.8 301.367 256.107 301.68 254.753 302.305C253.399 302.904 252.383 303.724 251.706 304.766C251.029 305.781 250.691 306.927 250.691 308.203C250.691 309.167 250.925 310.039 251.394 310.82C251.889 311.602 252.618 312.331 253.581 313.008C254.545 313.685 255.73 314.323 257.136 314.922C258.542 315.521 260.17 316.107 262.019 316.68C265.118 317.617 267.839 318.672 270.183 319.844C272.553 321.016 274.532 322.331 276.12 323.789C277.709 325.247 278.907 326.901 279.714 328.75C280.521 330.599 280.925 332.695 280.925 335.039C280.925 337.513 280.443 339.727 279.48 341.68C278.516 343.633 277.123 345.286 275.3 346.641C273.477 347.995 271.303 349.023 268.777 349.727C266.251 350.43 263.425 350.781 260.3 350.781C257.488 350.781 254.714 350.417 251.98 349.688C249.245 348.932 246.758 347.799 244.519 346.289C242.305 344.779 240.534 342.852 239.206 340.508C237.878 338.164 237.214 335.391 237.214 332.188H248.972C248.972 333.958 249.245 335.456 249.792 336.68C250.339 337.904 251.107 338.893 252.097 339.648C253.113 340.404 254.31 340.951 255.691 341.289C257.097 341.628 258.633 341.797 260.3 341.797C262.331 341.797 263.998 341.51 265.3 340.938C266.628 340.365 267.605 339.57 268.23 338.555C268.881 337.539 269.206 336.393 269.206 335.117ZM298.466 307.734V350H287.177V307.734H298.466ZM286.473 296.719C286.473 295.078 287.046 293.724 288.192 292.656C289.338 291.589 290.874 291.055 292.802 291.055C294.703 291.055 296.226 291.589 297.372 292.656C298.544 293.724 299.13 295.078 299.13 296.719C299.13 298.359 298.544 299.714 297.372 300.781C296.226 301.849 294.703 302.383 292.802 302.383C290.874 302.383 289.338 301.849 288.192 300.781C287.046 299.714 286.473 298.359 286.473 296.719ZM320.498 350H309.17V303.984C309.17 300.781 309.795 298.086 311.045 295.898C312.321 293.685 314.105 292.018 316.397 290.898C318.715 289.753 321.462 289.18 324.639 289.18C325.681 289.18 326.683 289.258 327.647 289.414C328.61 289.544 329.548 289.714 330.459 289.922L330.342 298.398C329.847 298.268 329.327 298.177 328.78 298.125C328.233 298.073 327.595 298.047 326.866 298.047C325.511 298.047 324.353 298.281 323.389 298.75C322.452 299.193 321.735 299.857 321.241 300.742C320.746 301.628 320.498 302.708 320.498 303.984V350ZM328.936 307.734V315.703H302.881V307.734H328.936ZM345.773 345.234L356.984 307.734H369.055L352.062 356.367C351.698 357.435 351.203 358.581 350.578 359.805C349.979 361.029 349.159 362.188 348.117 363.281C347.102 364.401 345.812 365.312 344.25 366.016C342.714 366.719 340.826 367.07 338.586 367.07C337.518 367.07 336.646 367.005 335.969 366.875C335.292 366.745 334.484 366.562 333.547 366.328V358.086C333.833 358.086 334.133 358.086 334.445 358.086C334.758 358.112 335.057 358.125 335.344 358.125C336.828 358.125 338.039 357.956 338.977 357.617C339.914 357.279 340.669 356.758 341.242 356.055C341.815 355.378 342.271 354.492 342.609 353.398L345.773 345.234ZM341.086 307.734L350.266 338.359L351.867 350.273L344.211 351.094L329.016 307.734H341.086Z" fill="#2C2C2C"/>
<path d="M432.756 230.763V391.75C432.756 402.888 428.791 412.422 420.859 420.353C412.928 428.284 403.394 432.25 392.256 432.25H108.756C97.6187 432.25 88.0843 428.284 80.153 420.353C72.2218 412.422 68.2562 402.888 68.2562 391.75V230.763C60.4937 223.675 54.503 214.563 50.2843 203.425C46.0655 192.288 45.9812 180.138 50.0312 166.975L71.2937 98.125C73.9937 89.35 78.803 82.0938 85.7218 76.3563C92.6405 70.6188 100.656 67.75 109.769 67.75H391.244C400.356 67.75 408.287 70.5344 415.037 76.1031C421.787 81.6719 426.681 89.0125 429.719 98.125L450.981 166.975C455.031 180.138 454.947 192.119 450.728 202.919C446.509 213.719 440.519 223 432.756 230.763ZM295.056 209.5C304.169 209.5 311.087 206.378 315.812 200.134C320.537 193.891 322.394 186.887 321.381 179.125L310.244 108.25H270.756V183.175C270.756 190.263 273.119 196.422 277.844 201.653C282.569 206.884 288.306 209.5 295.056 209.5ZM203.931 209.5C211.694 209.5 218.022 206.884 222.916 201.653C227.809 196.422 230.256 190.263 230.256 183.175V108.25H190.769L179.631 179.125C178.281 187.225 180.053 194.313 184.947 200.388C189.841 206.463 196.169 209.5 203.931 209.5ZM113.819 209.5C119.894 209.5 125.209 207.306 129.766 202.919C134.322 198.531 137.106 192.962 138.119 186.212L149.256 108.25H109.769L89.5187 176.087C87.4937 182.837 88.5905 190.094 92.8093 197.856C97.028 205.619 104.031 209.5 113.819 209.5ZM387.194 209.5C396.981 209.5 404.069 205.619 408.456 197.856C412.844 190.094 413.856 182.837 411.494 176.087L390.231 108.25H351.756L362.894 186.212C363.906 192.962 366.691 198.531 371.247 202.919C375.803 207.306 381.119 209.5 387.194 209.5ZM108.756 391.75H392.256V248.987C390.569 249.662 389.472 250 388.966 250H387.194C378.081 250 370.066 248.481 363.147 245.444C356.228 242.406 349.394 237.513 342.644 230.763C336.569 236.838 329.65 241.562 321.887 244.938C314.125 248.313 305.856 250 297.081 250C287.969 250 279.447 248.313 271.516 244.938C263.584 241.562 256.581 236.838 250.506 230.763C244.769 236.838 238.103 241.562 230.509 244.938C222.916 248.313 214.731 250 205.956 250C196.169 250 187.309 248.313 179.378 244.938C171.447 241.562 164.444 236.838 158.369 230.763C151.281 237.85 144.278 242.828 137.359 245.697C130.441 248.566 122.594 250 113.819 250H111.541C110.697 250 109.769 249.662 108.756 248.987V391.75Z" fill="#2C2C2C"/>
</g>
</svg>
